M48
; DRILL file {KiCad 9.0.0} date 2025-06-10T19:10:27+0530
; FORMAT={-:-/ absolute / metric / decimal}
; #@! TF.CreationDate,2025-06-10T19:10:27+05:30
; #@! TF.GenerationSoftware,Kicad,Pcbnew,9.0.0
; #@! TF.FileFunction,Plated,1,2,PTH
FMAT,2
METRIC
; #@! TA.AperFunction,Plated,PTH,ComponentDrill
T1C0.889
; #@! TA.AperFunction,Plated,PTH,ComponentDrill
T2C1.000
%
G90
G05
T1
X155.425Y-97.3
X155.425Y-99.84
X155.425Y-102.38
X155.425Y-104.92
X155.425Y-107.46
X155.425Y-110.0
X155.425Y-112.54
X170.665Y-97.3
X170.665Y-99.84
X170.665Y-102.38
X170.665Y-104.92
X170.665Y-107.46
X170.665Y-110.0
X170.665Y-112.54
T2
X160.525Y-126.7
X160.525Y-129.24
X160.525Y-131.78
X160.525Y-134.32
X175.585Y-97.025
X175.84Y-113.0
X178.125Y-97.025
X178.38Y-113.0
X180.665Y-97.025
X180.92Y-113.0
X183.205Y-97.025
X183.46Y-113.0
X183.5Y-121.92
X183.5Y-124.46
X183.5Y-127.0
X183.5Y-129.54
X185.745Y-97.025
X186.0Y-113.0
X188.285Y-97.025
X188.54Y-113.0
M30
