%TF.GenerationSoftware,KiCad,Pcbnew,9.0.0*%
%TF.CreationDate,2025-06-10T19:10:25+05:30*%
%TF.ProjectId,andytrackerv2,616e6479-7472-4616-936b-657276322e6b,rev?*%
%TF.SameCoordinates,Original*%
%TF.FileFunction,Copper,L2,Bot*%
%TF.FilePolarity,Positive*%
%FSLAX46Y46*%
G04 Gerber Fmt 4.6, Leading zero omitted, Abs format (unit mm)*
G04 Created by KiCad (PCBNEW 9.0.0) date 2025-06-10 19:10:25*
%MOMM*%
%LPD*%
G01*
G04 APERTURE LIST*
%TA.AperFunction,ComponentPad*%
%ADD10C,1.524000*%
%TD*%
%TA.AperFunction,ComponentPad*%
%ADD11R,1.700000X1.700000*%
%TD*%
%TA.AperFunction,ComponentPad*%
%ADD12O,1.700000X1.700000*%
%TD*%
%TA.AperFunction,Conductor*%
%ADD13C,0.200000*%
%TD*%
G04 APERTURE END LIST*
D10*
%TO.P,U1,1,GPIO2/A0/D0*%
%TO.N,Net-(J2-Pin_2)*%
X155425000Y-97300000D03*
%TO.P,U1,2,GPIO3/A1/D1*%
%TO.N,Net-(J2-Pin_3)*%
X155425000Y-99840000D03*
%TO.P,U1,3,GPIO4/A2/D2*%
%TO.N,Net-(J2-Pin_4)*%
X155425000Y-102380000D03*
%TO.P,U1,4,GPIO5/A3/D3*%
%TO.N,Net-(J2-Pin_5)*%
X155425000Y-104920000D03*
%TO.P,U1,5,GPIO6/D4/SDA*%
%TO.N,Net-(J3-Pin_1)*%
X155425000Y-107460000D03*
%TO.P,U1,6,GPIO7/D5/SCL*%
%TO.N,Net-(J3-Pin_2)*%
X155425000Y-110000000D03*
%TO.P,U1,7,GPIO21/D6/TX*%
%TO.N,unconnected-(U1-GPIO21{slash}D6{slash}TX-Pad7)*%
X155425000Y-112540000D03*
%TO.P,U1,8,GPIO20/D7/RX*%
%TO.N,Net-(J1-Pin_5)*%
X170665000Y-112540000D03*
%TO.P,U1,9,GPIO8/D8/SCK*%
%TO.N,Net-(J1-Pin_4)*%
X170665000Y-110000000D03*
%TO.P,U1,10,GPIO9/D9/MISO*%
%TO.N,Net-(J1-Pin_3)*%
X170665000Y-107460000D03*
%TO.P,U1,11,GPIO10/D10/MOSI*%
%TO.N,Net-(J1-Pin_2)*%
X170665000Y-104920000D03*
%TO.P,U1,12,VCC_3V3*%
%TO.N,unconnected-(U1-VCC_3V3-Pad12)*%
X170665000Y-102380000D03*
%TO.P,U1,13,GND*%
%TO.N,unconnected-(U1-GND-Pad13)*%
X170665000Y-99840000D03*
%TO.P,U1,14,VBUS*%
%TO.N,Net-(J1-Pin_6)*%
X170665000Y-97300000D03*
%TD*%
D11*
%TO.P,J4,1,Pin_1*%
%TO.N,Net-(J3-Pin_1)*%
X183500000Y-121920000D03*
D12*
%TO.P,J4,2,Pin_2*%
%TO.N,Net-(J3-Pin_2)*%
X183500000Y-124460000D03*
%TO.P,J4,3,Pin_3*%
%TO.N,Net-(J1-Pin_6)*%
X183500000Y-127000000D03*
%TO.P,J4,4,Pin_4*%
%TO.N,GND*%
X183500000Y-129540000D03*
%TD*%
D11*
%TO.P,J1,1,Pin_1*%
%TO.N,GND*%
X175585000Y-97025000D03*
D12*
%TO.P,J1,2,Pin_2*%
%TO.N,Net-(J1-Pin_2)*%
X178125000Y-97025000D03*
%TO.P,J1,3,Pin_3*%
%TO.N,Net-(J1-Pin_3)*%
X180665000Y-97025000D03*
%TO.P,J1,4,Pin_4*%
%TO.N,Net-(J1-Pin_4)*%
X183205000Y-97025000D03*
%TO.P,J1,5,Pin_5*%
%TO.N,Net-(J1-Pin_5)*%
X185745000Y-97025000D03*
%TO.P,J1,6,Pin_6*%
%TO.N,Net-(J1-Pin_6)*%
X188285000Y-97025000D03*
%TD*%
D11*
%TO.P,J2,1,Pin_1*%
%TO.N,GND*%
X175840000Y-113000000D03*
D12*
%TO.P,J2,2,Pin_2*%
%TO.N,Net-(J2-Pin_2)*%
X178380000Y-113000000D03*
%TO.P,J2,3,Pin_3*%
%TO.N,Net-(J2-Pin_3)*%
X180920000Y-113000000D03*
%TO.P,J2,4,Pin_4*%
%TO.N,Net-(J2-Pin_4)*%
X183460000Y-113000000D03*
%TO.P,J2,5,Pin_5*%
%TO.N,Net-(J2-Pin_5)*%
X186000000Y-113000000D03*
%TO.P,J2,6,Pin_6*%
%TO.N,Net-(J1-Pin_6)*%
X188540000Y-113000000D03*
%TD*%
D11*
%TO.P,J3,1,Pin_1*%
%TO.N,Net-(J3-Pin_1)*%
X160525000Y-126700000D03*
D12*
%TO.P,J3,2,Pin_2*%
%TO.N,Net-(J3-Pin_2)*%
X160525000Y-129240000D03*
%TO.P,J3,3,Pin_3*%
%TO.N,Net-(J1-Pin_6)*%
X160525000Y-131780000D03*
%TO.P,J3,4,Pin_4*%
%TO.N,GND*%
X160525000Y-134320000D03*
%TD*%
D13*
%TO.N,Net-(J1-Pin_6)*%
X187134000Y-98176000D02*
X171541000Y-98176000D01*
X188285000Y-97025000D02*
X187134000Y-98176000D01*
X171541000Y-98176000D02*
X170665000Y-97300000D01*
%TD*%
M02*
