%TF.GenerationSoftware,KiCad,Pcbnew,9.0.0*%
%TF.CreationDate,2025-06-10T19:10:25+05:30*%
%TF.ProjectId,andytrackerv2,616e6479-7472-4616-936b-657276322e6b,rev?*%
%TF.SameCoordinates,Original*%
%TF.FileFunction,Copper,L1,Top*%
%TF.FilePolarity,Positive*%
%FSLAX46Y46*%
G04 Gerber Fmt 4.6, Leading zero omitted, Abs format (unit mm)*
G04 Created by KiCad (PCBNEW 9.0.0) date 2025-06-10 19:10:25*
%MOMM*%
%LPD*%
G01*
G04 APERTURE LIST*
G04 Aperture macros list*
%AMRoundRect*
0 Rectangle with rounded corners*
0 $1 Rounding radius*
0 $2 $3 $4 $5 $6 $7 $8 $9 X,Y pos of 4 corners*
0 Add a 4 corners polygon primitive as box body*
4,1,4,$2,$3,$4,$5,$6,$7,$8,$9,$2,$3,0*
0 Add four circle primitives for the rounded corners*
1,1,$1+$1,$2,$3*
1,1,$1+$1,$4,$5*
1,1,$1+$1,$6,$7*
1,1,$1+$1,$8,$9*
0 Add four rect primitives between the rounded corners*
20,1,$1+$1,$2,$3,$4,$5,0*
20,1,$1+$1,$4,$5,$6,$7,0*
20,1,$1+$1,$6,$7,$8,$9,0*
20,1,$1+$1,$8,$9,$2,$3,0*%
G04 Aperture macros list end*
%TA.AperFunction,SMDPad,CuDef*%
%ADD10RoundRect,0.152400X1.063600X0.609600X-1.063600X0.609600X-1.063600X-0.609600X1.063600X-0.609600X0*%
%TD*%
%TA.AperFunction,ComponentPad*%
%ADD11C,1.524000*%
%TD*%
%TA.AperFunction,SMDPad,CuDef*%
%ADD12RoundRect,0.152400X-1.063600X-0.609600X1.063600X-0.609600X1.063600X0.609600X-1.063600X0.609600X0*%
%TD*%
%TA.AperFunction,ComponentPad*%
%ADD13R,1.700000X1.700000*%
%TD*%
%TA.AperFunction,ComponentPad*%
%ADD14O,1.700000X1.700000*%
%TD*%
%TA.AperFunction,Conductor*%
%ADD15C,0.200000*%
%TD*%
G04 APERTURE END LIST*
D10*
%TO.P,U1,1,GPIO2/A0/D0*%
%TO.N,Net-(J2-Pin_2)*%
X154590000Y-97300000D03*
D11*
X155425000Y-97300000D03*
D10*
%TO.P,U1,2,GPIO3/A1/D1*%
%TO.N,Net-(J2-Pin_3)*%
X154590000Y-99840000D03*
D11*
X155425000Y-99840000D03*
D10*
%TO.P,U1,3,GPIO4/A2/D2*%
%TO.N,Net-(J2-Pin_4)*%
X154590000Y-102380000D03*
D11*
X155425000Y-102380000D03*
D10*
%TO.P,U1,4,GPIO5/A3/D3*%
%TO.N,Net-(J2-Pin_5)*%
X154590000Y-104920000D03*
D11*
X155425000Y-104920000D03*
D10*
%TO.P,U1,5,GPIO6/D4/SDA*%
%TO.N,Net-(J3-Pin_1)*%
X154590000Y-107460000D03*
D11*
X155425000Y-107460000D03*
D10*
%TO.P,U1,6,GPIO7/D5/SCL*%
%TO.N,Net-(J3-Pin_2)*%
X154590000Y-110000000D03*
D11*
X155425000Y-110000000D03*
D10*
%TO.P,U1,7,GPIO21/D6/TX*%
%TO.N,unconnected-(U1-GPIO21{slash}D6{slash}TX-Pad7)*%
X154590000Y-112540000D03*
D11*
X155425000Y-112540000D03*
%TO.P,U1,8,GPIO20/D7/RX*%
%TO.N,Net-(J1-Pin_5)*%
X170665000Y-112540000D03*
D12*
X171500000Y-112540000D03*
D11*
%TO.P,U1,9,GPIO8/D8/SCK*%
%TO.N,Net-(J1-Pin_4)*%
X170665000Y-110000000D03*
D12*
X171500000Y-110000000D03*
D11*
%TO.P,U1,10,GPIO9/D9/MISO*%
%TO.N,Net-(J1-Pin_3)*%
X170665000Y-107460000D03*
D12*
X171500000Y-107460000D03*
D11*
%TO.P,U1,11,GPIO10/D10/MOSI*%
%TO.N,Net-(J1-Pin_2)*%
X170665000Y-104920000D03*
D12*
X171500000Y-104920000D03*
D11*
%TO.P,U1,12,VCC_3V3*%
%TO.N,unconnected-(U1-VCC_3V3-Pad12)*%
X170665000Y-102380000D03*
D12*
X171500000Y-102380000D03*
D11*
%TO.P,U1,13,GND*%
%TO.N,unconnected-(U1-GND-Pad13)*%
X170665000Y-99840000D03*
D12*
X171500000Y-99840000D03*
D11*
%TO.P,U1,14,VBUS*%
%TO.N,Net-(J1-Pin_6)*%
X170665000Y-97300000D03*
D12*
X171500000Y-97300000D03*
%TD*%
D13*
%TO.P,J4,1,Pin_1*%
%TO.N,Net-(J3-Pin_1)*%
X183500000Y-121920000D03*
D14*
%TO.P,J4,2,Pin_2*%
%TO.N,Net-(J3-Pin_2)*%
X183500000Y-124460000D03*
%TO.P,J4,3,Pin_3*%
%TO.N,Net-(J1-Pin_6)*%
X183500000Y-127000000D03*
%TO.P,J4,4,Pin_4*%
%TO.N,GND*%
X183500000Y-129540000D03*
%TD*%
D13*
%TO.P,J1,1,Pin_1*%
%TO.N,GND*%
X175585000Y-97025000D03*
D14*
%TO.P,J1,2,Pin_2*%
%TO.N,Net-(J1-Pin_2)*%
X178125000Y-97025000D03*
%TO.P,J1,3,Pin_3*%
%TO.N,Net-(J1-Pin_3)*%
X180665000Y-97025000D03*
%TO.P,J1,4,Pin_4*%
%TO.N,Net-(J1-Pin_4)*%
X183205000Y-97025000D03*
%TO.P,J1,5,Pin_5*%
%TO.N,Net-(J1-Pin_5)*%
X185745000Y-97025000D03*
%TO.P,J1,6,Pin_6*%
%TO.N,Net-(J1-Pin_6)*%
X188285000Y-97025000D03*
%TD*%
D13*
%TO.P,J2,1,Pin_1*%
%TO.N,GND*%
X175840000Y-113000000D03*
D14*
%TO.P,J2,2,Pin_2*%
%TO.N,Net-(J2-Pin_2)*%
X178380000Y-113000000D03*
%TO.P,J2,3,Pin_3*%
%TO.N,Net-(J2-Pin_3)*%
X180920000Y-113000000D03*
%TO.P,J2,4,Pin_4*%
%TO.N,Net-(J2-Pin_4)*%
X183460000Y-113000000D03*
%TO.P,J2,5,Pin_5*%
%TO.N,Net-(J2-Pin_5)*%
X186000000Y-113000000D03*
%TO.P,J2,6,Pin_6*%
%TO.N,Net-(J1-Pin_6)*%
X188540000Y-113000000D03*
%TD*%
D13*
%TO.P,J3,1,Pin_1*%
%TO.N,Net-(J3-Pin_1)*%
X160525000Y-126700000D03*
D14*
%TO.P,J3,2,Pin_2*%
%TO.N,Net-(J3-Pin_2)*%
X160525000Y-129240000D03*
%TO.P,J3,3,Pin_3*%
%TO.N,Net-(J1-Pin_6)*%
X160525000Y-131780000D03*
%TO.P,J3,4,Pin_4*%
%TO.N,GND*%
X160525000Y-134320000D03*
%TD*%
D15*
%TO.N,Net-(J1-Pin_6)*%
X165305000Y-127000000D02*
X183500000Y-127000000D01*
X160525000Y-131780000D02*
X165305000Y-127000000D01*
%TO.N,Net-(J3-Pin_1)*%
X183500000Y-121920000D02*
X165305000Y-121920000D01*
X165305000Y-121920000D02*
X160525000Y-126700000D01*
%TO.N,Net-(J3-Pin_2)*%
X165305000Y-124460000D02*
X183500000Y-124460000D01*
X160525000Y-129240000D02*
X165305000Y-124460000D01*
%TO.N,GND*%
X153101000Y-126896000D02*
X153101000Y-123613000D01*
X160525000Y-134320000D02*
X153101000Y-126896000D01*
%TO.N,Net-(J3-Pin_2)*%
X156488000Y-125203000D02*
X160525000Y-129240000D01*
X155425000Y-110000000D02*
X156488000Y-111063000D01*
X156488000Y-111063000D02*
X156488000Y-125203000D01*
%TO.N,Net-(J3-Pin_1)*%
X159000000Y-121920000D02*
X160525000Y-123445000D01*
X160525000Y-123445000D02*
X160525000Y-126700000D01*
%TO.N,Net-(J1-Pin_6)*%
X188285000Y-112745000D02*
X188540000Y-113000000D01*
X188285000Y-97025000D02*
X188285000Y-112745000D01*
%TO.N,GND*%
X186896000Y-109453000D02*
X184500000Y-111849000D01*
X186896000Y-96786240D02*
X186896000Y-109453000D01*
X187808240Y-95874000D02*
X186896000Y-96786240D01*
X188761760Y-95874000D02*
X187808240Y-95874000D01*
X189691000Y-96803240D02*
X188761760Y-95874000D01*
X189691000Y-123349000D02*
X189691000Y-96803240D01*
X183500000Y-129540000D02*
X189691000Y-123349000D01*
X184500000Y-111849000D02*
X176991000Y-111849000D01*
X186476760Y-111849000D02*
X184500000Y-111849000D01*
X184872760Y-115755000D02*
X187151000Y-113476760D01*
X187151000Y-112523240D02*
X186476760Y-111849000D01*
X165223310Y-115755000D02*
X184872760Y-115755000D01*
X155865310Y-106397000D02*
X165223310Y-115755000D01*
X187151000Y-113476760D02*
X187151000Y-112523240D01*
X153334374Y-106397000D02*
X155865310Y-106397000D01*
X153073000Y-106658374D02*
X153334374Y-106397000D01*
X176991000Y-111849000D02*
X175840000Y-113000000D01*
X153073000Y-123613000D02*
X153073000Y-106658374D01*
%TO.N,Net-(J3-Pin_1)*%
X159000000Y-111035000D02*
X155425000Y-107460000D01*
X159000000Y-121920000D02*
X159000000Y-111035000D01*
%TO.N,Net-(J1-Pin_6)*%
X188540000Y-121960000D02*
X183500000Y-127000000D01*
X188540000Y-113000000D02*
X188540000Y-121960000D01*
%TO.N,Net-(J2-Pin_5)*%
X165859000Y-115354000D02*
X155425000Y-104920000D01*
X183646000Y-115354000D02*
X165859000Y-115354000D01*
X186000000Y-113000000D02*
X183646000Y-115354000D01*
%TO.N,Net-(J2-Pin_4)*%
X167998000Y-114953000D02*
X155425000Y-102380000D01*
X181507000Y-114953000D02*
X167998000Y-114953000D01*
X183460000Y-113000000D02*
X181507000Y-114953000D01*
%TO.N,Net-(J2-Pin_3)*%
X170137000Y-114552000D02*
X155425000Y-99840000D01*
X179368000Y-114552000D02*
X170137000Y-114552000D01*
X180920000Y-113000000D02*
X179368000Y-114552000D01*
%TO.N,Net-(J1-Pin_5)*%
X168800000Y-110675000D02*
X170665000Y-112540000D01*
X168800000Y-97094590D02*
X168800000Y-110675000D01*
X183391000Y-94671000D02*
X171223590Y-94671000D01*
X185745000Y-97025000D02*
X183391000Y-94671000D01*
X171223590Y-94671000D02*
X168800000Y-97094590D01*
%TO.N,Net-(J1-Pin_4)*%
X169201000Y-97260690D02*
X169201000Y-108536000D01*
X171389690Y-95072000D02*
X169201000Y-97260690D01*
X181252000Y-95072000D02*
X171389690Y-95072000D01*
X169201000Y-108536000D02*
X170665000Y-110000000D01*
X183205000Y-97025000D02*
X181252000Y-95072000D01*
%TO.N,Net-(J1-Pin_3)*%
X170486064Y-101055626D02*
X169602000Y-101939690D01*
X173017000Y-101055626D02*
X170486064Y-101055626D01*
X173017000Y-96723900D02*
X173017000Y-101055626D01*
X169602000Y-101939690D02*
X169602000Y-106397000D01*
X179113000Y-95473000D02*
X174267900Y-95473000D01*
X174267900Y-95473000D02*
X173017000Y-96723900D01*
X169602000Y-106397000D02*
X170665000Y-107460000D01*
X180665000Y-97025000D02*
X179113000Y-95473000D01*
%TO.N,Net-(J1-Pin_2)*%
X171500000Y-104920000D02*
X170665000Y-104920000D01*
X174434000Y-95874000D02*
X174434000Y-101986000D01*
X174434000Y-101986000D02*
X171500000Y-104920000D01*
X176974000Y-95874000D02*
X174434000Y-95874000D01*
X178125000Y-97025000D02*
X176974000Y-95874000D01*
%TO.N,Net-(J2-Pin_2)*%
X156488000Y-98363000D02*
X155425000Y-97300000D01*
X156488000Y-100280310D02*
X156488000Y-98363000D01*
X170358690Y-114151000D02*
X156488000Y-100280310D01*
X177229000Y-114151000D02*
X170358690Y-114151000D01*
X178380000Y-113000000D02*
X177229000Y-114151000D01*
%TO.N,GND*%
X175585000Y-112745000D02*
X175840000Y-113000000D01*
X175585000Y-97025000D02*
X175585000Y-112745000D01*
%TD*%
M02*
