%TF.GenerationSoftware,KiCad,Pcbnew,9.0.2*%
%TF.CreationDate,2025-06-04T23:15:31+05:30*%
%TF.ProjectId,andytrackerPCB,616e6479-7472-4616-936b-65725043422e,rev?*%
%TF.SameCoordinates,Original*%
%TF.FileFunction,Copper,L2,Bot*%
%TF.FilePolarity,Positive*%
%FSLAX46Y46*%
G04 Gerber Fmt 4.6, Leading zero omitted, Abs format (unit mm)*
G04 Created by KiCad (PCBNEW 9.0.2) date 2025-06-04 23:15:31*
%MOMM*%
%LPD*%
G01*
G04 APERTURE LIST*
G04 Aperture macros list*
%AMRoundRect*
0 Rectangle with rounded corners*
0 $1 Rounding radius*
0 $2 $3 $4 $5 $6 $7 $8 $9 X,Y pos of 4 corners*
0 Add a 4 corners polygon primitive as box body*
4,1,4,$2,$3,$4,$5,$6,$7,$8,$9,$2,$3,0*
0 Add four circle primitives for the rounded corners*
1,1,$1+$1,$2,$3*
1,1,$1+$1,$4,$5*
1,1,$1+$1,$6,$7*
1,1,$1+$1,$8,$9*
0 Add four rect primitives between the rounded corners*
20,1,$1+$1,$2,$3,$4,$5,0*
20,1,$1+$1,$4,$5,$6,$7,0*
20,1,$1+$1,$6,$7,$8,$9,0*
20,1,$1+$1,$8,$9,$2,$3,0*%
G04 Aperture macros list end*
%TA.AperFunction,ComponentPad*%
%ADD10R,1.700000X1.700000*%
%TD*%
%TA.AperFunction,ComponentPad*%
%ADD11C,1.700000*%
%TD*%
%TA.AperFunction,ComponentPad*%
%ADD12R,3.500000X3.500000*%
%TD*%
%TA.AperFunction,ComponentPad*%
%ADD13RoundRect,0.750000X-1.000000X0.750000X-1.000000X-0.750000X1.000000X-0.750000X1.000000X0.750000X0*%
%TD*%
%TA.AperFunction,ComponentPad*%
%ADD14RoundRect,0.875000X-0.875000X0.875000X-0.875000X-0.875000X0.875000X-0.875000X0.875000X0.875000X0*%
%TD*%
%TA.AperFunction,ComponentPad*%
%ADD15O,2.400000X1.800000*%
%TD*%
G04 APERTURE END LIST*
D10*
%TO.P,J3,1*%
%TO.N,Net-(A1-VIN)*%
X179840000Y-117500000D03*
D11*
%TO.P,J3,2*%
%TO.N,Net-(A1-ADC1_CH5{slash}D33)*%
X182380000Y-117500000D03*
%TO.P,J3,3*%
%TO.N,Net-(A1-ADC1_CH4{slash}D32)*%
X184920000Y-117500000D03*
%TO.P,J3,4*%
%TO.N,Net-(A1-ADC1_CH7{slash}D35)*%
X187460000Y-117500000D03*
%TO.P,J3,5*%
%TO.N,Net-(A1-ADC1_CH6{slash}D34)*%
X190000000Y-117500000D03*
%TO.P,J3,6*%
%TO.N,Net-(A1-GND)*%
X192540000Y-117500000D03*
%TD*%
D10*
%TO.P,J2,1*%
%TO.N,Net-(A1-VIN)*%
X179880000Y-103000000D03*
D11*
%TO.P,J2,2*%
%TO.N,Net-(A1-ADC2_CH4{slash}D13)*%
X182420000Y-103000000D03*
%TO.P,J2,3*%
%TO.N,Net-(A1-ADC2_CH5{slash}D12)*%
X184960000Y-103000000D03*
%TO.P,J2,4*%
%TO.N,Net-(A1-ADC2_CH6{slash}D14)*%
X187500000Y-103000000D03*
%TO.P,J2,5*%
%TO.N,Net-(A1-ADC2_CH7{slash}D27)*%
X190040000Y-103000000D03*
%TO.P,J2,6*%
%TO.N,Net-(A1-GND)*%
X192580000Y-103000000D03*
%TD*%
D12*
%TO.P,J1,1*%
%TO.N,Net-(A1-VIN)*%
X188542500Y-77500000D03*
D13*
%TO.P,J1,2*%
%TO.N,Net-(A1-GND)*%
X188542500Y-71500000D03*
D14*
%TO.P,J1,3*%
%TO.N,N/C*%
X183842500Y-74500000D03*
%TD*%
D15*
%TO.P,A1,1,3.3V*%
%TO.N,unconnected-(A1-3.3V-Pad1)*%
X149100000Y-70140000D03*
%TO.P,A1,2,CLK/GPIO6*%
%TO.N,unconnected-(A1-CLK{slash}GPIO6-Pad2)*%
X149100000Y-72680000D03*
%TO.P,A1,3,SD0/GPIO7*%
%TO.N,unconnected-(A1-SD0{slash}GPIO7-Pad3)*%
X149100000Y-75220000D03*
%TO.P,A1,4,SD1/GPIO8*%
%TO.N,unconnected-(A1-SD1{slash}GPIO8-Pad4)*%
X149100000Y-77760000D03*
%TO.P,A1,5,D0*%
%TO.N,unconnected-(A1-D0-Pad5)*%
X149100000Y-80300000D03*
%TO.P,A1,6,D15*%
%TO.N,unconnected-(A1-D15-Pad6)*%
X149100000Y-82840000D03*
%TO.P,A1,7,D2*%
%TO.N,unconnected-(A1-D2-Pad7)*%
X149100000Y-85380000D03*
%TO.P,A1,8,D4*%
%TO.N,unconnected-(A1-D4-Pad8)*%
X149100000Y-87920000D03*
%TO.P,A1,9,RX2/GPIO17*%
%TO.N,unconnected-(A1-RX2{slash}GPIO17-Pad9)*%
X149100000Y-90460000D03*
%TO.P,A1,10,TX2/GPIO16*%
%TO.N,unconnected-(A1-TX2{slash}GPIO16-Pad10)*%
X149100000Y-93000000D03*
%TO.P,A1,11,D5*%
%TO.N,unconnected-(A1-D5-Pad11)*%
X149100000Y-95540000D03*
%TO.P,A1,12,D18*%
%TO.N,unconnected-(A1-D18-Pad12)*%
X149100000Y-98080000D03*
%TO.P,A1,13,D19*%
%TO.N,unconnected-(A1-D19-Pad13)*%
X149100000Y-100620000D03*
%TO.P,A1,14,D21/SDA*%
%TO.N,unconnected-(A1-D21{slash}SDA-Pad14)*%
X149100000Y-103160000D03*
%TO.P,A1,15,RX0/GPIO3*%
%TO.N,unconnected-(A1-RX0{slash}GPIO3-Pad15)*%
X149100000Y-105700000D03*
%TO.P,A1,16,TX0/GPIO1*%
%TO.N,unconnected-(A1-TX0{slash}GPIO1-Pad16)*%
X149100000Y-108240000D03*
%TO.P,A1,17,D22/SCL*%
%TO.N,unconnected-(A1-D22{slash}SCL-Pad17)*%
X149100000Y-110780000D03*
%TO.P,A1,18,D23*%
%TO.N,unconnected-(A1-D23-Pad18)*%
X149100000Y-113320000D03*
%TO.P,A1,19,EN*%
%TO.N,unconnected-(A1-EN-Pad19)*%
X174500000Y-113320000D03*
%TO.P,A1,20,GPIO36/ADC1_CH0/VP*%
%TO.N,unconnected-(A1-GPIO36{slash}ADC1_CH0{slash}VP-Pad20)*%
X174500000Y-110780000D03*
%TO.P,A1,21,GPIO39/ADC1_CH3/VN*%
%TO.N,unconnected-(A1-GPIO39{slash}ADC1_CH3{slash}VN-Pad21)*%
X174500000Y-108240000D03*
%TO.P,A1,22,ADC1_CH6/D34*%
%TO.N,Net-(A1-ADC1_CH6{slash}D34)*%
X174500000Y-105700000D03*
%TO.P,A1,23,ADC1_CH7/D35*%
%TO.N,Net-(A1-ADC1_CH7{slash}D35)*%
X174500000Y-103160000D03*
%TO.P,A1,24,ADC1_CH4/D32*%
%TO.N,Net-(A1-ADC1_CH4{slash}D32)*%
X174500000Y-100620000D03*
%TO.P,A1,25,ADC1_CH5/D33*%
%TO.N,Net-(A1-ADC1_CH5{slash}D33)*%
X174500000Y-98080000D03*
%TO.P,A1,26,DAC1/ADC2_CH8/D25*%
%TO.N,unconnected-(A1-DAC1{slash}ADC2_CH8{slash}D25-Pad26)*%
X174500000Y-95540000D03*
%TO.P,A1,27,DAC2/ADC2_CH9/D26*%
%TO.N,unconnected-(A1-DAC2{slash}ADC2_CH9{slash}D26-Pad27)*%
X174500000Y-93000000D03*
%TO.P,A1,28,ADC2_CH7/D27*%
%TO.N,Net-(A1-ADC2_CH7{slash}D27)*%
X174500000Y-90460000D03*
%TO.P,A1,29,ADC2_CH6/D14*%
%TO.N,Net-(A1-ADC2_CH6{slash}D14)*%
X174500000Y-87920000D03*
%TO.P,A1,30,ADC2_CH5/D12*%
%TO.N,Net-(A1-ADC2_CH5{slash}D12)*%
X174500000Y-85380000D03*
%TO.P,A1,31,ADC2_CH4/D13*%
%TO.N,Net-(A1-ADC2_CH4{slash}D13)*%
X174500000Y-82840000D03*
%TO.P,A1,32,GPIO9/SD2*%
%TO.N,unconnected-(A1-GPIO9{slash}SD2-Pad32)*%
X174500000Y-80300000D03*
%TO.P,A1,33,GPIO10/SD3*%
%TO.N,unconnected-(A1-GPIO10{slash}SD3-Pad33)*%
X174500000Y-77760000D03*
%TO.P,A1,34,GPIO11/CMD*%
%TO.N,unconnected-(A1-GPIO11{slash}CMD-Pad34)*%
X174500000Y-75220000D03*
%TO.P,A1,35,GND*%
%TO.N,Net-(A1-GND)*%
X174500000Y-72680000D03*
%TO.P,A1,36,VIN*%
%TO.N,Net-(A1-VIN)*%
X174500000Y-70140000D03*
%TD*%
M02*
