M48
; DRILL file {KiCad 9.0.2} date 2025-06-04T23:15:36+0530
; FORMAT={-:-/ absolute / metric / decimal}
; #@! TF.CreationDate,2025-06-04T23:15:36+05:30
; #@! TF.GenerationSoftware,Kicad,Pcbnew,9.0.2
; #@! TF.FileFunction,Plated,1,2,PTH
FMAT,2
METRIC
; #@! TA.AperFunction,Plated,PTH,ComponentDrill
T1C1.000
%
G90
G05
T1
X149.1Y-70.14
X149.1Y-72.68
X149.1Y-75.22
X149.1Y-77.76
X149.1Y-80.3
X149.1Y-82.84
X149.1Y-85.38
X149.1Y-87.92
X149.1Y-90.46
X149.1Y-93.0
X149.1Y-95.54
X149.1Y-98.08
X149.1Y-100.62
X149.1Y-103.16
X149.1Y-105.7
X149.1Y-108.24
X149.1Y-110.78
X149.1Y-113.32
X174.5Y-70.14
X174.5Y-72.68
X174.5Y-75.22
X174.5Y-77.76
X174.5Y-80.3
X174.5Y-82.84
X174.5Y-85.38
X174.5Y-87.92
X174.5Y-90.46
X174.5Y-93.0
X174.5Y-95.54
X174.5Y-98.08
X174.5Y-100.62
X174.5Y-103.16
X174.5Y-105.7
X174.5Y-108.24
X174.5Y-110.78
X174.5Y-113.32
X179.84Y-117.5
X179.88Y-103.0
X182.38Y-117.5
X182.42Y-103.0
X184.92Y-117.5
X184.96Y-103.0
X187.46Y-117.5
X187.5Y-103.0
X190.0Y-117.5
X190.04Y-103.0
X192.54Y-117.5
X192.58Y-103.0
T1
G00X183.843Y-73.5
M15
G01X183.843Y-75.5
M16
G05
G00X189.542Y-71.5
M15
G01X187.542Y-71.5
M16
G05
G00X189.542Y-77.5
M15
G01X187.542Y-77.5
M16
G05
M30
