%TF.GenerationSoftware,KiCad,Pcbnew,9.0.2*%
%TF.CreationDate,2025-06-04T23:15:31+05:30*%
%TF.ProjectId,andytrackerPCB,616e6479-7472-4616-936b-65725043422e,rev?*%
%TF.SameCoordinates,Original*%
%TF.FileFunction,Legend,Top*%
%TF.FilePolarity,Positive*%
%FSLAX46Y46*%
G04 Gerber Fmt 4.6, Leading zero omitted, Abs format (unit mm)*
G04 Created by KiCad (PCBNEW 9.0.2) date 2025-06-04 23:15:31*
%MOMM*%
%LPD*%
G01*
G04 APERTURE LIST*
%ADD10C,0.100000*%
%ADD11C,0.150000*%
%ADD12C,0.120000*%
%ADD13C,0.170000*%
%ADD14C,0.200000*%
%ADD15C,0.400000*%
%ADD16C,0.500000*%
G04 APERTURE END LIST*
D10*
X183256265Y-106324800D02*
X183399122Y-106372419D01*
X183399122Y-106372419D02*
X183637217Y-106372419D01*
X183637217Y-106372419D02*
X183732455Y-106324800D01*
X183732455Y-106324800D02*
X183780074Y-106277180D01*
X183780074Y-106277180D02*
X183827693Y-106181942D01*
X183827693Y-106181942D02*
X183827693Y-106086704D01*
X183827693Y-106086704D02*
X183780074Y-105991466D01*
X183780074Y-105991466D02*
X183732455Y-105943847D01*
X183732455Y-105943847D02*
X183637217Y-105896228D01*
X183637217Y-105896228D02*
X183446741Y-105848609D01*
X183446741Y-105848609D02*
X183351503Y-105800990D01*
X183351503Y-105800990D02*
X183303884Y-105753371D01*
X183303884Y-105753371D02*
X183256265Y-105658133D01*
X183256265Y-105658133D02*
X183256265Y-105562895D01*
X183256265Y-105562895D02*
X183303884Y-105467657D01*
X183303884Y-105467657D02*
X183351503Y-105420038D01*
X183351503Y-105420038D02*
X183446741Y-105372419D01*
X183446741Y-105372419D02*
X183684836Y-105372419D01*
X183684836Y-105372419D02*
X183827693Y-105420038D01*
X184113408Y-105372419D02*
X184684836Y-105372419D01*
X184399122Y-106372419D02*
X184399122Y-105372419D01*
X185018170Y-105848609D02*
X185351503Y-105848609D01*
X185494360Y-106372419D02*
X185018170Y-106372419D01*
X185018170Y-106372419D02*
X185018170Y-105372419D01*
X185018170Y-105372419D02*
X185494360Y-105372419D01*
X185922932Y-106372419D02*
X185922932Y-105372419D01*
X185922932Y-105372419D02*
X186303884Y-105372419D01*
X186303884Y-105372419D02*
X186399122Y-105420038D01*
X186399122Y-105420038D02*
X186446741Y-105467657D01*
X186446741Y-105467657D02*
X186494360Y-105562895D01*
X186494360Y-105562895D02*
X186494360Y-105705752D01*
X186494360Y-105705752D02*
X186446741Y-105800990D01*
X186446741Y-105800990D02*
X186399122Y-105848609D01*
X186399122Y-105848609D02*
X186303884Y-105896228D01*
X186303884Y-105896228D02*
X185922932Y-105896228D01*
X186922932Y-105991466D02*
X187684837Y-105991466D01*
X188684836Y-106372419D02*
X188113408Y-106372419D01*
X188399122Y-106372419D02*
X188399122Y-105372419D01*
X188399122Y-105372419D02*
X188303884Y-105515276D01*
X188303884Y-105515276D02*
X188208646Y-105610514D01*
X188208646Y-105610514D02*
X188113408Y-105658133D01*
X183256265Y-121214856D02*
X183399122Y-121262475D01*
X183399122Y-121262475D02*
X183637217Y-121262475D01*
X183637217Y-121262475D02*
X183732455Y-121214856D01*
X183732455Y-121214856D02*
X183780074Y-121167236D01*
X183780074Y-121167236D02*
X183827693Y-121071998D01*
X183827693Y-121071998D02*
X183827693Y-120976760D01*
X183827693Y-120976760D02*
X183780074Y-120881522D01*
X183780074Y-120881522D02*
X183732455Y-120833903D01*
X183732455Y-120833903D02*
X183637217Y-120786284D01*
X183637217Y-120786284D02*
X183446741Y-120738665D01*
X183446741Y-120738665D02*
X183351503Y-120691046D01*
X183351503Y-120691046D02*
X183303884Y-120643427D01*
X183303884Y-120643427D02*
X183256265Y-120548189D01*
X183256265Y-120548189D02*
X183256265Y-120452951D01*
X183256265Y-120452951D02*
X183303884Y-120357713D01*
X183303884Y-120357713D02*
X183351503Y-120310094D01*
X183351503Y-120310094D02*
X183446741Y-120262475D01*
X183446741Y-120262475D02*
X183684836Y-120262475D01*
X183684836Y-120262475D02*
X183827693Y-120310094D01*
X184113408Y-120262475D02*
X184684836Y-120262475D01*
X184399122Y-121262475D02*
X184399122Y-120262475D01*
X185018170Y-120738665D02*
X185351503Y-120738665D01*
X185494360Y-121262475D02*
X185018170Y-121262475D01*
X185018170Y-121262475D02*
X185018170Y-120262475D01*
X185018170Y-120262475D02*
X185494360Y-120262475D01*
X185922932Y-121262475D02*
X185922932Y-120262475D01*
X185922932Y-120262475D02*
X186303884Y-120262475D01*
X186303884Y-120262475D02*
X186399122Y-120310094D01*
X186399122Y-120310094D02*
X186446741Y-120357713D01*
X186446741Y-120357713D02*
X186494360Y-120452951D01*
X186494360Y-120452951D02*
X186494360Y-120595808D01*
X186494360Y-120595808D02*
X186446741Y-120691046D01*
X186446741Y-120691046D02*
X186399122Y-120738665D01*
X186399122Y-120738665D02*
X186303884Y-120786284D01*
X186303884Y-120786284D02*
X185922932Y-120786284D01*
X186922932Y-120881522D02*
X187684837Y-120881522D01*
X188113408Y-120357713D02*
X188161027Y-120310094D01*
X188161027Y-120310094D02*
X188256265Y-120262475D01*
X188256265Y-120262475D02*
X188494360Y-120262475D01*
X188494360Y-120262475D02*
X188589598Y-120310094D01*
X188589598Y-120310094D02*
X188637217Y-120357713D01*
X188637217Y-120357713D02*
X188684836Y-120452951D01*
X188684836Y-120452951D02*
X188684836Y-120548189D01*
X188684836Y-120548189D02*
X188637217Y-120691046D01*
X188637217Y-120691046D02*
X188065789Y-121262475D01*
X188065789Y-121262475D02*
X188684836Y-121262475D01*
D11*
X176524819Y-117833333D02*
X177239104Y-117833333D01*
X177239104Y-117833333D02*
X177381961Y-117880952D01*
X177381961Y-117880952D02*
X177477200Y-117976190D01*
X177477200Y-117976190D02*
X177524819Y-118119047D01*
X177524819Y-118119047D02*
X177524819Y-118214285D01*
X176524819Y-117452380D02*
X176524819Y-116833333D01*
X176524819Y-116833333D02*
X176905771Y-117166666D01*
X176905771Y-117166666D02*
X176905771Y-117023809D01*
X176905771Y-117023809D02*
X176953390Y-116928571D01*
X176953390Y-116928571D02*
X177001009Y-116880952D01*
X177001009Y-116880952D02*
X177096247Y-116833333D01*
X177096247Y-116833333D02*
X177334342Y-116833333D01*
X177334342Y-116833333D02*
X177429580Y-116880952D01*
X177429580Y-116880952D02*
X177477200Y-116928571D01*
X177477200Y-116928571D02*
X177524819Y-117023809D01*
X177524819Y-117023809D02*
X177524819Y-117309523D01*
X177524819Y-117309523D02*
X177477200Y-117404761D01*
X177477200Y-117404761D02*
X177429580Y-117452380D01*
X176564819Y-103333333D02*
X177279104Y-103333333D01*
X177279104Y-103333333D02*
X177421961Y-103380952D01*
X177421961Y-103380952D02*
X177517200Y-103476190D01*
X177517200Y-103476190D02*
X177564819Y-103619047D01*
X177564819Y-103619047D02*
X177564819Y-103714285D01*
X176660057Y-102904761D02*
X176612438Y-102857142D01*
X176612438Y-102857142D02*
X176564819Y-102761904D01*
X176564819Y-102761904D02*
X176564819Y-102523809D01*
X176564819Y-102523809D02*
X176612438Y-102428571D01*
X176612438Y-102428571D02*
X176660057Y-102380952D01*
X176660057Y-102380952D02*
X176755295Y-102333333D01*
X176755295Y-102333333D02*
X176850533Y-102333333D01*
X176850533Y-102333333D02*
X176993390Y-102380952D01*
X176993390Y-102380952D02*
X177564819Y-102952380D01*
X177564819Y-102952380D02*
X177564819Y-102333333D01*
X182247319Y-69383333D02*
X182961604Y-69383333D01*
X182961604Y-69383333D02*
X183104461Y-69430952D01*
X183104461Y-69430952D02*
X183199700Y-69526190D01*
X183199700Y-69526190D02*
X183247319Y-69669047D01*
X183247319Y-69669047D02*
X183247319Y-69764285D01*
X183247319Y-68383333D02*
X183247319Y-68954761D01*
X183247319Y-68669047D02*
X182247319Y-68669047D01*
X182247319Y-68669047D02*
X182390176Y-68764285D01*
X182390176Y-68764285D02*
X182485414Y-68859523D01*
X182485414Y-68859523D02*
X182533033Y-68954761D01*
X161585714Y-77699104D02*
X162061904Y-77699104D01*
X161490476Y-77984819D02*
X161823809Y-76984819D01*
X161823809Y-76984819D02*
X162157142Y-77984819D01*
X163014285Y-77984819D02*
X162442857Y-77984819D01*
X162728571Y-77984819D02*
X162728571Y-76984819D01*
X162728571Y-76984819D02*
X162633333Y-77127676D01*
X162633333Y-77127676D02*
X162538095Y-77222914D01*
X162538095Y-77222914D02*
X162442857Y-77270533D01*
D12*
%TO.C,J3*%
X178510000Y-116170000D02*
X179840000Y-116170000D01*
X178510000Y-117500000D02*
X178510000Y-116170000D01*
X181110000Y-116170000D02*
X193870000Y-116170000D01*
X181110000Y-118830000D02*
X181110000Y-116170000D01*
X181110000Y-118830000D02*
X193870000Y-118830000D01*
X193870000Y-118830000D02*
X193870000Y-116170000D01*
%TO.C,J2*%
X178550000Y-101670000D02*
X179880000Y-101670000D01*
X178550000Y-103000000D02*
X178550000Y-101670000D01*
X181150000Y-101670000D02*
X193910000Y-101670000D01*
X181150000Y-104330000D02*
X181150000Y-101670000D01*
X181150000Y-104330000D02*
X193910000Y-104330000D01*
X193910000Y-104330000D02*
X193910000Y-101670000D01*
%TO.C,J1*%
X183942500Y-63700000D02*
X193142500Y-63700000D01*
X183942500Y-72500000D02*
X183942500Y-63700000D01*
X183942500Y-78400000D02*
X183942500Y-76500000D01*
X186642500Y-78400000D02*
X183942500Y-78400000D01*
X192292500Y-78600000D02*
X193342500Y-78600000D01*
X193142500Y-63700000D02*
X193142500Y-78400000D01*
X193142500Y-78400000D02*
X190542500Y-78400000D01*
X193342500Y-77550000D02*
X193342500Y-78600000D01*
D13*
%TO.C,A1*%
X147621219Y-118418287D02*
X147621219Y-64275051D01*
X149121219Y-62775051D02*
X157951733Y-62775051D01*
D14*
X154505248Y-119310276D02*
X154505248Y-113460276D01*
D15*
X154705248Y-113610276D02*
X154705248Y-119210276D01*
X154705248Y-119110276D02*
X156655248Y-119110276D01*
D14*
X154905248Y-118910276D02*
X154905248Y-113510276D01*
X154905248Y-118910276D02*
X154905248Y-113510276D01*
X156505248Y-113460276D02*
X156505248Y-118910276D01*
X156505248Y-118910276D02*
X154905248Y-118910276D01*
D15*
X156655248Y-119110276D02*
X158705248Y-119110276D01*
D16*
X156705248Y-119160276D02*
X156705248Y-113610276D01*
D14*
X156905248Y-113460276D02*
X156905248Y-118910276D01*
X156905248Y-118910276D02*
X158505248Y-118910276D01*
D13*
X157951733Y-61960000D02*
X165665836Y-61960000D01*
X157951733Y-62775051D02*
X157951733Y-61960000D01*
D14*
X158505248Y-116110276D02*
X161705248Y-116110276D01*
X158505248Y-118910276D02*
X158505248Y-116110276D01*
D15*
X158705248Y-116310276D02*
X161455248Y-116310276D01*
X158705248Y-119110276D02*
X158705248Y-116310276D01*
D14*
X158905248Y-116510276D02*
X158905248Y-119310276D01*
X158905248Y-116510276D02*
X158905248Y-119310276D01*
X158905248Y-119310276D02*
X154505248Y-119310276D01*
X159563408Y-107587676D02*
X160361408Y-107587676D01*
X159563408Y-107729176D02*
X159563408Y-107587676D01*
X159563408Y-108549776D02*
X159585578Y-108436576D01*
X159563408Y-108606376D02*
X159563408Y-108549776D01*
X159585578Y-108436576D02*
X159629908Y-108351676D01*
X159585578Y-108719576D02*
X159563408Y-108606376D01*
X159629908Y-108351676D02*
X160184078Y-107729176D01*
X159674248Y-108832776D02*
X159585578Y-108719576D01*
X159696408Y-108549776D02*
X159696408Y-108606376D01*
X159696408Y-108606376D02*
X159740748Y-108691276D01*
X159740748Y-108436576D02*
X159696408Y-108549776D01*
X159740748Y-108691276D02*
X159807248Y-108747876D01*
X159762908Y-108889376D02*
X159674248Y-108832776D01*
X159807248Y-108747876D02*
X159918078Y-108776176D01*
X159895908Y-108917676D02*
X159762908Y-108889376D01*
X159918078Y-108776176D02*
X160006748Y-108776176D01*
X159984578Y-108917676D02*
X159895908Y-108917676D01*
X160006748Y-108776176D02*
X160117578Y-108747876D01*
X160117578Y-108747876D02*
X160184078Y-108691276D01*
X160139748Y-108889376D02*
X159984578Y-108917676D01*
X160184078Y-107729176D02*
X159563408Y-107729176D01*
X160184078Y-108691276D02*
X160228408Y-108606376D01*
X160228408Y-108606376D02*
X160339248Y-108606376D01*
X160228408Y-108832776D02*
X160139748Y-108889376D01*
X160317078Y-108719576D02*
X160228408Y-108832776D01*
X160339248Y-108606376D02*
X160317078Y-108719576D01*
X160361408Y-107587676D02*
X160361408Y-107729176D01*
X160361408Y-107729176D02*
X159740748Y-108436576D01*
X160538748Y-107898976D02*
X160560908Y-107814076D01*
X160538748Y-108012176D02*
X160538748Y-107898976D01*
X160560908Y-107814076D02*
X160605248Y-107729176D01*
X160560908Y-108125376D02*
X160538748Y-108012176D01*
X160560908Y-108549776D02*
X160583078Y-108436576D01*
X160560908Y-108606376D02*
X160560908Y-108549776D01*
X160583078Y-108436576D02*
X160627408Y-108351676D01*
X160583078Y-108719576D02*
X160560908Y-108606376D01*
X160605248Y-107729176D02*
X160671748Y-107672576D01*
X160605248Y-108210276D02*
X160560908Y-108125376D01*
X160627408Y-108351676D02*
X160716078Y-108266776D01*
X160649578Y-107898976D02*
X160649578Y-108012176D01*
X160649578Y-108012176D02*
X160693908Y-108125376D01*
X160671748Y-107672576D02*
X160760408Y-107615976D01*
X160671748Y-107842376D02*
X160649578Y-107898976D01*
X160671748Y-108549776D02*
X160671748Y-108606376D01*
X160671748Y-108606376D02*
X160716078Y-108691276D01*
X160671748Y-108832776D02*
X160583078Y-108719576D01*
X160693908Y-108125376D02*
X160760408Y-108181976D01*
X160716078Y-107785776D02*
X160671748Y-107842376D01*
X160716078Y-108266776D02*
X160605248Y-108210276D01*
X160716078Y-108436576D02*
X160671748Y-108549776D01*
X160716078Y-108691276D02*
X160782578Y-108747876D01*
X160760408Y-107615976D02*
X160849078Y-107587676D01*
X160760408Y-107757476D02*
X160716078Y-107785776D01*
X160760408Y-108181976D02*
X160893408Y-108210276D01*
X160760408Y-108379976D02*
X160716078Y-108436576D01*
X160760408Y-108889376D02*
X160671748Y-108832776D01*
X160782578Y-108747876D02*
X160893408Y-108776176D01*
X160849078Y-107587676D02*
X161026408Y-107587676D01*
X160871248Y-107729176D02*
X160760408Y-107757476D01*
X160893408Y-108210276D02*
X160982078Y-108210276D01*
X160893408Y-108323376D02*
X160760408Y-108379976D01*
X160893408Y-108776176D02*
X160982078Y-108776176D01*
X160915578Y-108917676D02*
X160760408Y-108889376D01*
X160959908Y-108917676D02*
X160915578Y-108917676D01*
X160982078Y-108210276D02*
X160982078Y-108323376D01*
X160982078Y-108323376D02*
X160893408Y-108323376D01*
X160982078Y-108776176D02*
X161092908Y-108747876D01*
X161004248Y-107729176D02*
X160871248Y-107729176D01*
X161026408Y-107587676D02*
X161115078Y-107615976D01*
X161092908Y-108747876D02*
X161159408Y-108691276D01*
X161115078Y-107615976D02*
X161203748Y-107672576D01*
X161115078Y-107757476D02*
X161004248Y-107729176D01*
X161115078Y-108889376D02*
X160959908Y-108917676D01*
X161159408Y-107785776D02*
X161115078Y-107757476D01*
X161159408Y-108691276D02*
X161203748Y-108606376D01*
X161203748Y-107672576D02*
X161270248Y-107729176D01*
X161203748Y-107842376D02*
X161159408Y-107785776D01*
X161203748Y-108606376D02*
X161314578Y-108606376D01*
X161203748Y-108832776D02*
X161115078Y-108889376D01*
X161225908Y-107898976D02*
X161203748Y-107842376D01*
X161270248Y-107729176D02*
X161314578Y-107814076D01*
X161292408Y-108719576D02*
X161203748Y-108832776D01*
X161305248Y-116510276D02*
X158905248Y-116510276D01*
X161305248Y-119310276D02*
X161305248Y-116510276D01*
X161314578Y-107814076D02*
X161336748Y-107898976D01*
X161314578Y-108606376D02*
X161292408Y-108719576D01*
X161336748Y-107898976D02*
X161225908Y-107898976D01*
D12*
X161455248Y-116310276D02*
X161555248Y-116410276D01*
D15*
X161555248Y-116410276D02*
X161555248Y-119110276D01*
X161555248Y-119110276D02*
X164255248Y-119110276D01*
D14*
X161650083Y-108068776D02*
X161960413Y-108068776D01*
X161650083Y-108210276D02*
X161650083Y-108068776D01*
X161705248Y-116110276D02*
X161705248Y-118910276D01*
X161705248Y-116110276D02*
X161705248Y-118910276D01*
X161705248Y-118910276D02*
X164105248Y-118910276D01*
X161960413Y-108068776D02*
X161960413Y-108210276D01*
X161960413Y-108210276D02*
X161650083Y-108210276D01*
X162139248Y-108493226D02*
X162161408Y-108408326D01*
X162139248Y-108606426D02*
X162139248Y-108493226D01*
X162161408Y-108408326D02*
X162227908Y-108295126D01*
X162161408Y-108691326D02*
X162139248Y-108606426D01*
X162227908Y-108295126D02*
X162316578Y-108210326D01*
X162227908Y-108804526D02*
X162161408Y-108691326D01*
X162272248Y-108521526D02*
X162272248Y-108606426D01*
X162272248Y-108606426D02*
X162294408Y-108691326D01*
X162294408Y-108436626D02*
X162272248Y-108521526D01*
X162294408Y-108691326D02*
X162338748Y-108747926D01*
X162316578Y-108210326D02*
X162427408Y-108182026D01*
X162316578Y-108889426D02*
X162227908Y-108804526D01*
X162338748Y-108380026D02*
X162294408Y-108436626D01*
X162338748Y-108747926D02*
X162405248Y-108776226D01*
X162405248Y-108351726D02*
X162338748Y-108380026D01*
X162405248Y-108776226D02*
X162826408Y-108776226D01*
X162427408Y-108182026D02*
X162826408Y-108182026D01*
X162427408Y-108917726D02*
X162316578Y-108889426D01*
X162826408Y-107587726D02*
X162959408Y-107587726D01*
X162826408Y-108182026D02*
X162826408Y-107587726D01*
X162826408Y-108351726D02*
X162405248Y-108351726D01*
X162826408Y-108776226D02*
X162826408Y-108351726D01*
X162959408Y-107587726D02*
X162959408Y-108917726D01*
X162959408Y-108917726D02*
X162427408Y-108917726D01*
X163136748Y-107899026D02*
X163181078Y-107785826D01*
X163136748Y-108040526D02*
X163136748Y-107899026D01*
X163181078Y-107785826D02*
X163269748Y-107672626D01*
X163181078Y-108153726D02*
X163136748Y-108040526D01*
X163203248Y-108606426D02*
X163336248Y-108606426D01*
X163225408Y-108691326D02*
X163203248Y-108606426D01*
X163269748Y-107672626D02*
X163358408Y-107616026D01*
X163269748Y-107927326D02*
X163269748Y-108012226D01*
X163269748Y-108012226D02*
X163314078Y-108097126D01*
X163269748Y-108266826D02*
X163181078Y-108153726D01*
X163291908Y-108804526D02*
X163225408Y-108691326D01*
X163314078Y-107842426D02*
X163269748Y-107927326D01*
X163314078Y-108097126D02*
X163380578Y-108153726D01*
X163336248Y-108606426D02*
X163358408Y-108663026D01*
X163358408Y-107616026D02*
X163469248Y-107587726D01*
X163358408Y-108323426D02*
X163269748Y-108266826D01*
X163358408Y-108663026D02*
X163402748Y-108719626D01*
X163380578Y-107785826D02*
X163314078Y-107842426D01*
X163380578Y-108153726D02*
X163469248Y-108182026D01*
X163380578Y-108889426D02*
X163291908Y-108804526D01*
X163402748Y-108719626D02*
X163469248Y-108747926D01*
X163469248Y-107587726D02*
X163646578Y-107587726D01*
X163469248Y-107757526D02*
X163380578Y-107785826D01*
X163469248Y-108182026D02*
X163602248Y-108182026D01*
X163469248Y-108351726D02*
X163358408Y-108323426D01*
X163469248Y-108747926D02*
X163602248Y-108747926D01*
X163491408Y-108917726D02*
X163380578Y-108889426D01*
X163602248Y-108182026D02*
X163690908Y-108210326D01*
X163602248Y-108351726D02*
X163469248Y-108351726D01*
X163602248Y-108747926D02*
X163668748Y-108719626D01*
X163602248Y-108917726D02*
X163491408Y-108917726D01*
X163646578Y-107587726D02*
X163757408Y-107616026D01*
X163646578Y-107757526D02*
X163469248Y-107757526D01*
X163668748Y-108380026D02*
X163602248Y-108351726D01*
X163668748Y-108719626D02*
X163735248Y-108663026D01*
X163690908Y-108210326D02*
X163779578Y-108266826D01*
X163690908Y-108889426D02*
X163602248Y-108917726D01*
X163735248Y-107785826D02*
X163646578Y-107757526D01*
X163735248Y-108436626D02*
X163668748Y-108380026D01*
X163735248Y-108663026D02*
X163757408Y-108578126D01*
X163757408Y-107616026D02*
X163868248Y-107700926D01*
X163757408Y-108521526D02*
X163735248Y-108436626D01*
X163757408Y-108578126D02*
X163757408Y-108521526D01*
X163779578Y-108266826D02*
X163868248Y-108380026D01*
X163779578Y-108832826D02*
X163690908Y-108889426D01*
X163801748Y-107870726D02*
X163735248Y-107785826D01*
X163823908Y-107955626D02*
X163801748Y-107870726D01*
X163868248Y-107700926D02*
X163934748Y-107842426D01*
X163868248Y-108380026D02*
X163890408Y-108493226D01*
X163868248Y-108719626D02*
X163779578Y-108832826D01*
X163890408Y-108493226D02*
X163890408Y-108606426D01*
X163890408Y-108606426D02*
X163868248Y-108719626D01*
X163934748Y-107842426D02*
X163956908Y-107955626D01*
X163956908Y-107955626D02*
X163823908Y-107955626D01*
X164105248Y-116110276D02*
X167305248Y-116110276D01*
X164105248Y-118910276D02*
X164105248Y-116110276D01*
X164134248Y-107587726D02*
X164932248Y-107587726D01*
X164134248Y-107757526D02*
X164134248Y-107587726D01*
X164134248Y-108747926D02*
X164799248Y-108747926D01*
X164134248Y-108917726D02*
X164134248Y-108747926D01*
X164222908Y-108210326D02*
X164799248Y-108210326D01*
X164222908Y-108380026D02*
X164222908Y-108210326D01*
D15*
X164255248Y-116360276D02*
X167055248Y-116360276D01*
X164255248Y-119110276D02*
X164255248Y-116360276D01*
D14*
X164505248Y-116510276D02*
X164505248Y-119310276D01*
X164505248Y-116510276D02*
X164505248Y-119310276D01*
X164505248Y-119310276D02*
X161305248Y-119310276D01*
X164799248Y-107757526D02*
X164134248Y-107757526D01*
X164799248Y-108210326D02*
X164799248Y-107757526D01*
X164799248Y-108380026D02*
X164222908Y-108380026D01*
X164799248Y-108747926D02*
X164799248Y-108380026D01*
X164932248Y-107587726D02*
X164932248Y-108917726D01*
X164932248Y-108917726D02*
X164134248Y-108917726D01*
D13*
X165665836Y-61960000D02*
X165665836Y-62775051D01*
X165665836Y-62775051D02*
X174550000Y-62775051D01*
D14*
X166905248Y-116510276D02*
X164505248Y-116510276D01*
X166905248Y-119310276D02*
X166905248Y-116510276D01*
D15*
X167055248Y-116360276D02*
X167055248Y-119110276D01*
X167055248Y-119110276D02*
X169605248Y-119110276D01*
D14*
X167305248Y-116110276D02*
X167305248Y-118910276D01*
X167305248Y-116110276D02*
X167305248Y-118910276D01*
X167305248Y-118910276D02*
X169405248Y-118910276D01*
X169405248Y-118910276D02*
X169405248Y-115110276D01*
X169407248Y-115098276D02*
X169807248Y-115098276D01*
D15*
X169605248Y-119110276D02*
X169605248Y-115210276D01*
D14*
X169805248Y-115110276D02*
X169805248Y-119310276D01*
X169805248Y-115110276D02*
X169805248Y-119310276D01*
X169805248Y-119310276D02*
X166905248Y-119310276D01*
X170805248Y-119910276D02*
X152805248Y-119910276D01*
D13*
X174550000Y-119918287D02*
X149121219Y-119918287D01*
X176050000Y-64275051D02*
X176050000Y-118418287D01*
D14*
X153955248Y-95498144D02*
X169717378Y-95498144D01*
X169717378Y-113460276D01*
X153955248Y-113460276D01*
X153955248Y-95498144D01*
D12*
X157951733Y-61960000D02*
X165600000Y-61960000D01*
X165600000Y-67260000D01*
X157951733Y-67260000D01*
X157951733Y-61960000D01*
D11*
X170805248Y-94410276D02*
X152805248Y-94410276D01*
X152805248Y-119910276D01*
X170805248Y-119910276D01*
X170805248Y-94410276D01*
D13*
X147621219Y-64275051D02*
G75*
G02*
X149121219Y-62775051I1500001J-1D01*
G01*
X149121219Y-119918287D02*
G75*
G02*
X147621219Y-118418287I1J1500001D01*
G01*
X174550000Y-62775051D02*
G75*
G02*
X176049949Y-64275051I0J-1499949D01*
G01*
X176050000Y-118418287D02*
G75*
G02*
X174550000Y-119918280I-1500000J7D01*
G01*
D12*
X148800001Y-72664846D02*
X148800001Y-72664846D01*
X148800001Y-72664846D01*
X148800001Y-72664846D01*
X148800001Y-72664846D01*
X148800001Y-72664846D01*
X148800001Y-72664847D01*
X148800001Y-72664847D01*
X148800001Y-72664847D01*
X148800001Y-72664847D01*
X148800001Y-72664847D01*
X148800001Y-72664847D01*
X148800001Y-72664847D01*
X148800000Y-72664847D01*
X148800000Y-72664847D01*
X148800000Y-72664847D01*
X148800000Y-72664847D01*
X148800000Y-72664847D01*
X148800000Y-72664847D01*
X148800000Y-72664847D01*
X148800000Y-72664847D01*
X148800000Y-72664847D01*
X148800000Y-72664847D01*
X148800000Y-72664847D01*
X148800000Y-72664847D01*
X148799999Y-72664847D01*
X148799999Y-72664847D01*
X148799999Y-72664847D01*
X148799999Y-72664847D01*
X148799999Y-72664847D01*
X148799999Y-72664847D01*
X148799999Y-72664846D01*
X148799999Y-72664846D01*
X148799999Y-72664846D01*
X148799999Y-72664846D01*
X148799999Y-72664846D01*
X148799999Y-72664846D01*
X148799999Y-72664846D02*
X148799999Y-72664846D01*
X148799999Y-72664846D01*
X148799999Y-72664846D01*
X148799999Y-72664846D01*
X148799999Y-72664846D01*
X148799999Y-72664846D01*
X148799999Y-72664845D01*
X148799999Y-72664845D01*
X148799999Y-72664845D01*
X148799999Y-72664845D01*
X148799999Y-72664845D01*
X148800000Y-72664845D01*
X148800000Y-72664845D01*
X148800000Y-72664845D01*
X148800000Y-72664845D01*
X148800000Y-72664845D01*
X148800000Y-72664845D01*
X148800000Y-72664845D01*
X148800000Y-72664845D01*
X148800000Y-72664845D01*
X148800000Y-72664845D01*
X148800000Y-72664845D01*
X148800000Y-72664845D01*
X148800001Y-72664845D01*
X148800001Y-72664845D01*
X148800001Y-72664845D01*
X148800001Y-72664845D01*
X148800001Y-72664845D01*
X148800001Y-72664845D01*
X148800001Y-72664846D01*
X148800001Y-72664846D01*
X148800001Y-72664846D01*
X148800001Y-72664846D01*
X148800001Y-72664846D01*
X148800001Y-72664846D01*
X148800001Y-72664846D01*
%TD*%
M02*
